<svg xmlns="http://www.w3.org/2000/svg" viewBox="0 0 82.88 43.22"><defs><style>.cls-1{fill:none;stroke:#30f;stroke-miterlimit:10;stroke-width:2.5px;}.cls-2{fill:#30f;}</style></defs><title>Asset 5</title><g id="Layer_2" data-name="Layer 2"><g id="Layer_1-2" data-name="Layer 1"><rect class="cls-1" x="21.08" y="-18.58" width="40.72" height="80.38" transform="translate(63.05 -19.83) rotate(90)"/><path class="cls-2" d="M63.06,17.05a3.77,3.77,0,0,1-5.22,0,4.32,4.32,0,0,1-.91-2.93V12.25h-4v-2H64v3.9A4.32,4.32,0,0,1,63.06,17.05Zm-4.37-2.93a1.88,1.88,0,0,0,.49,1.42,1.74,1.74,0,0,0,1.27.47,1.78,1.78,0,0,0,1.28-.47,1.89,1.89,0,0,0,.5-1.42V12.25H58.69Z"/><path class="cls-2" d="M64,24.59v2.53L52.9,30.75V28.62l2.39-.77V23.74L52.9,23V20.82Zm-7.16-.34v3.11l4.76-1.54Z"/><path class="cls-2" d="M42.58,18.32a3.12,3.12,0,0,1-2-.66,3.44,3.44,0,0,1-1.16-1.91l-4.51,3V16.09l4.32-2.44V12.11H34.9v-2H46v4.1A4.52,4.52,0,0,1,45,17.25,3,3,0,0,1,42.58,18.32Zm-2-4.31a2.42,2.42,0,0,0,.5,1.67,1.71,1.71,0,0,0,1.33.56,1.79,1.79,0,0,0,1.33-.51,2.12,2.12,0,0,0,.5-1.53V12.11H40.57Z"/><path class="cls-2" d="M46,25.67H41.42L46,30V32.8l-5-4.88L34.9,33.13V30.52l4.69-3.94-.92-.91H34.9v-2H46Z"/><path class="cls-2" d="M28,10.1v7.12H26.23V12.11H23.32V16.9H21.58V12.11H18.66v5.11H16.9V10.1Z"/><path class="cls-2" d="M24.58,30.89a3.12,3.12,0,0,1-2-.67,3.4,3.4,0,0,1-1.16-1.91l-4.51,3V28.65l4.32-2.44V24.68H16.9v-2H28v4.1a4.51,4.51,0,0,1-.94,3A3,3,0,0,1,24.58,30.89Zm-2-4.32a2.4,2.4,0,0,0,.5,1.67,1.67,1.67,0,0,0,1.33.56,1.79,1.79,0,0,0,1.33-.51,2.12,2.12,0,0,0,.5-1.53V24.68H22.57Z"/><rect class="cls-2" x="67.31" y="13.43" width="9" height="2.32" transform="translate(86.41 -57.21) rotate(90)"/><rect class="cls-2" x="4.31" y="13.43" width="9" height="2.32" transform="translate(23.41 5.79) rotate(90)"/></g></g></svg>