<svg xmlns="http://www.w3.org/2000/svg" viewBox="0 0 151.82 38.66"><defs><style>.cls-1{fill:#fff;}</style></defs><title>Asset 3</title><g id="Layer_2" data-name="Layer 2"><g id="Layer_1-2" data-name="Layer 1"><path d="M22.15,2.52s0-.1,0-.16c-.2-2.72,3-2.73,4.68-1.81a9,9,0,0,0,5.45,1.17c1.15-.11,2.3-.05,3.46-.05a5.36,5.36,0,0,1,4.79,3,11.39,11.39,0,0,1,.31,4c.13,6.79,1.14,13.91.3,20.75-.37,3.08.25,3.65,0,6.73a2.37,2.37,0,0,1-2.29,2.51A7.51,7.51,0,0,1,36,38.38C34,37.76,33.1,36,33.06,34a37.77,37.77,0,0,1,.61-8.22,1.7,1.7,0,0,0-.2-1.47,1.44,1.44,0,0,0-.64-.35c-3-1-6.78-.1-9.83.4a4.17,4.17,0,0,0-3.34,2.21c-.8,2,.67,5.63,1.05,7.7a29.12,29.12,0,0,1,.36,2.94c.06.8-.33,1.21-1.14,1.34A10.79,10.79,0,0,1,15.3,38c-3.29-.91-2-6.19-1.73-8.6.36-3.94.27-6.83,3.66-9.5a27.68,27.68,0,0,1,4-2.88c3-1.61,3.54-4.53,3.41-7.64a11.36,11.36,0,0,0-.81-3.77C23.4,4.56,22.32,3.68,22.15,2.52ZM29.6,19.73a7.35,7.35,0,0,0,1.25.4c3.08.34,3.88-.78,3.55-3.4a22.54,22.54,0,0,1-.07-6.86,8.1,8.1,0,0,0,0-2.2c-.2-2.33-1.05-3-3.43-2.68A1.19,1.19,0,0,0,29.74,6.3a14.22,14.22,0,0,0,.45,2.91,9.21,9.21,0,0,1,.29,3.65c-.16,1.38-.4,2.76-.58,4.14C29.79,17.88,29.7,18.77,29.6,19.73Z"/><path d="M81.85,6.8a13.9,13.9,0,0,0-1,1.88,5.76,5.76,0,0,0,0,4.77,1.69,1.69,0,0,0,1.58,1.07,2.14,2.14,0,0,0,1.14-.77C86.89,10.17,90.08,6.22,93.75,3c1.58-1.4,4-2.06,5.77-.58a11.19,11.19,0,0,1,1.12,1.27,3.32,3.32,0,0,1,.14,1.12,2.65,2.65,0,0,1-1.41,1.56c-1.57,1-2.08,2-3.75,2.83-2.09,1-2.63,2.83-3.68,4.91A3.86,3.86,0,0,0,91.58,17a10.75,10.75,0,0,0,1,1.82c1.81,3.25.31,6.31,3.2,9,1.39,1.32,4.63,6,4.35,7.74a1.87,1.87,0,0,1-.85,1.19,5.86,5.86,0,0,1-7.6-1.27c-1.44-2-4.69-6.46-6-8.57a2.55,2.55,0,0,0-.94-1c-2.41-1.17-2.69,3.22-2.67,4.7,0,1.78,1.09,4,.36,5.75-1,2.28-4.93,1.57-6.94,1.43a1.9,1.9,0,0,1-1.24-.42,1.81,1.81,0,0,1-.38-.91,20.63,20.63,0,0,0-1.47-5c-.59-1.53-.63-3.13-1.16-4.66s-1.73-2.78-2.68-4.12c-3-4.28.52-8.85,1-13.36C69.78,6.46,70.06,4,73,2.6c2.59-1.2,5.72-.89,8.49-.77.92,0,2.08.3,2.25,1.21a2.08,2.08,0,0,1-.41,1.38C82.85,5.22,82.33,6,81.85,6.8Z"/><path d="M95.52,13.44c.54-1.51,1.63-2.15,3.41-3.58a12.15,12.15,0,0,0,3.73-5.21,6.25,6.25,0,0,1,1-2c1.41-1.58,3.94-.75,6-.39C113.74,3,118,1.32,122.07,2a1.54,1.54,0,0,1,1.19.65c.24.48-.13,2.9-.58,3.19a3.25,3.25,0,0,1-1.52.37l-11.08.86a2.91,2.91,0,0,0-1.74.52,2.93,2.93,0,0,0-.7,2.13c-.11,2.07-.15,2.31-.26,4.38a1.84,1.84,0,0,0,.32,1.4,3.55,3.55,0,0,0,2.47,1.4,34.84,34.84,0,0,0,9,.86,5,5,0,0,1,2.3.25,2.38,2.38,0,0,1,.89,2.52,2.82,2.82,0,0,1-2.58,1.2l-9.63-.39a1.33,1.33,0,0,0-.84.16,1.23,1.23,0,0,0-.37.62c-1.09,3.06-1.5,5.43.75,7.78a7.27,7.27,0,0,0,5.59,1.83c2-.08,4-.61,6-.79a1.66,1.66,0,0,1,.94.12c.56.31.56,2.29.18,2.79a3.19,3.19,0,0,1-1.62,1,39.58,39.58,0,0,1-11.51,2.05,10.36,10.36,0,0,1-4-.49,10.11,10.11,0,0,1-4.1-3.45A34.79,34.79,0,0,1,96,24.37a20.63,20.63,0,0,1-.86-8.77A8.13,8.13,0,0,1,95.52,13.44Z"/><path d="M72.13,37.31a16.44,16.44,0,0,0-.57-2.3,22.93,22.93,0,0,0-1.17-3.08,51.7,51.7,0,0,0-5-7.93c-1.27-1.83-3.41-2.55-4.84-4a1.83,1.83,0,0,1,.77-1.8,5.11,5.11,0,0,1,1-.68A8.54,8.54,0,0,0,66,13.28c.4-.81.77-1.64,1.22-2.43a5.1,5.1,0,0,0-.52-5.8,7.55,7.55,0,0,0-4.64-3c-2.44-.58-4.9-1.1-7.32-.36A16,16,0,0,1,49.39,2c-.65,0-1.3-.25-2-.32a3,3,0,0,0-3,1.34,3.62,3.62,0,0,0-.69,2.8C44,7,43.36,8.06,43.2,9.23a14.59,14.59,0,0,0,.16,3.23c.24,2.7.25,5.42.25,8.13,0,5.21-1.15,10.43,0,15.54.31,1.33,2.59,2.24,3.84,1.91a6.94,6.94,0,0,1,3.14-.11c1.58.28,2.37-.62,2.32-2.33s-.09-3.13-.11-4.7c0-2.13.45-4.27-.12-6.4a2.06,2.06,0,0,1,0-.74,1.23,1.23,0,0,1,1.58-1.12,6,6,0,0,1,3.21,1.75c.87,1,1.76,2,2.56,3a9.53,9.53,0,0,1,1.23,2.12c.7,1.68,1.29,3.4,2,5.09a6.2,6.2,0,0,0,4.17,3.91,11.25,11.25,0,0,0,4.16-.37.66.66,0,0,0,.56-.86ZM56,14.3a3.22,3.22,0,0,1-3,.48,3.28,3.28,0,0,1-.45-2.24c0-1.32,0-2.64.1-3.95a4,4,0,0,1,.62-1.84,5.89,5.89,0,0,1,5.85-2.34c1.9.5,3,2.32,2,4A18.33,18.33,0,0,1,56,14.3Z"/><path d="M151.77,34.94a20.37,20.37,0,0,0-1.42-4.29,30.8,30.8,0,0,0-2.59-4.44,20.77,20.77,0,0,0-3.41-4.29c-1-.85-2.71-1.49-3.27-2.71a1.13,1.13,0,0,1,.18-1.2c.66-1,2.2-.84,3-1.72a22.88,22.88,0,0,0,2.08-2.63,9.26,9.26,0,0,0,1.07-2.76,7.86,7.86,0,0,0,.42-3.69c-.5-2.63-2.92-4.44-5.4-5-2.33-.56-4.67-1-7-.35a12.28,12.28,0,0,1-4.23.33c-1.36-.06-2.82-.64-4.15-.16-2.11.76-2.2,3.63-2.37,5.49a39,39,0,0,0,.21,7.64,22.32,22.32,0,0,1,.33,3.55,33.4,33.4,0,0,0-.31,3.6c.22,3.86-.67,9.61.69,13.26a2.23,2.23,0,0,0,2.59,1.62,6.57,6.57,0,0,1,3-.1c2.94.53,2.46-4.21,2.47-6,0-1.54,0-3.08,0-4.63a19.07,19.07,0,0,0-.19-2.73,1.65,1.65,0,0,1,.67-1.83c1.13-.61,3.18.74,3.9,1.57a26,26,0,0,1,4.75,8c.89,2.34,2.09,4.69,4.68,5.44C149.2,37.43,152.26,37.33,151.77,34.94ZM136.64,13.87a4.09,4.09,0,0,1-.39.22l-.32.24a3.27,3.27,0,0,1-1.54.59,1.47,1.47,0,0,1-1.6-1.32c0-.31,0-.6,0-.9,0-1.22,0-2.44.09-3.65a3.83,3.83,0,0,1,.58-1.7,4.87,4.87,0,0,1,.78-.87,5.62,5.62,0,0,1,5.42-2c1.81.48,2.81,2.21,1.86,3.77A17.61,17.61,0,0,1,136.64,13.87Z"/><path class="cls-1" d="M29.6,19.73c.1-1,.19-1.85.3-2.73.18-1.38.42-2.76.58-4.14a9.21,9.21,0,0,0-.29-3.65,14.22,14.22,0,0,1-.45-2.91A1.19,1.19,0,0,1,30.91,5c2.38-.3,3.23.35,3.43,2.68a8.1,8.1,0,0,1,0,2.2,22.54,22.54,0,0,0,.07,6.86c.33,2.62-.47,3.74-3.55,3.4A7.35,7.35,0,0,1,29.6,19.73Z"/><path d="M11.14.93a21.51,21.51,0,0,1-4.45.56c-1.5-.16-4.81-.18-6.06.81-1.44,1.13,0,3.41.25,5C1.51,11.41.4,14.73.13,18.8c-.19,2.93.7,6.1.72,9,0,2.35-.39,7.44,1.26,9.35.93,1.07,2.64.68,3.91.87s3,.9,4.23.09a1.39,1.39,0,0,0,.54-1.21,59.72,59.72,0,0,0-.7-8c-.25-2-.48-4.67-.59-6.64-.13-2.67,5-3.28,6.88-4.37,2.13-1.25,4.34-2.13,5.2-4.64C23.76,6.93,18-.84,11.14.93Zm-.46,11.28a.78.78,0,0,1-1-.49A9.17,9.17,0,0,1,10,6.43a8.19,8.19,0,0,1,.89-.89,3.39,3.39,0,0,1,2.79-.49C16,6.43,15.38,11.43,10.68,12.21Z"/></g></g></svg>